<svg version="1.1" id="Layer_1" xmlns="http://www.w3.org/2000/svg" xmlns:xlink="http://www.w3.org/1999/xlink" x="0px" y="0px"
	 width="100%" viewBox="0 0 500 500" enable-background="new 0 0 500 500" xml:space="preserve">
<path fill="#FFFFFF" opacity="1.000000" stroke="none" 
	d="
M247.000000,501.000000 
	C164.666687,501.000000 82.833374,501.000000 1.000044,501.000000 
	C1.000029,334.333405 1.000029,167.666779 1.000015,1.000133 
	C167.666565,1.000089 334.333130,1.000089 500.999756,1.000044 
	C500.999847,167.666519 500.999847,334.333038 500.999939,500.999786 
	C416.500000,501.000000 332.000000,501.000000 247.000000,501.000000 
M320.562347,322.740326 
	C321.377594,321.828491 322.192841,320.916687 323.612274,319.709717 
	C341.534729,300.660492 350.605164,278.045776 350.976990,251.303192 
	C350.959045,250.900208 350.941071,250.497238 350.970306,249.184738 
	C350.656555,235.854050 347.990387,223.109741 342.560516,210.829651 
	C337.758545,199.969498 331.342194,190.373199 322.742462,181.434677 
	C321.829926,180.620544 320.917358,179.806412 319.709778,178.387970 
	C300.486450,160.936890 278.077789,151.384628 251.316162,151.018433 
	C250.895004,151.032761 250.473862,151.047089 249.132874,151.023239 
	C196.315598,150.725250 150.059082,197.434891 151.019531,250.683578 
	C151.034012,251.104446 151.048492,251.525314 151.023834,252.866119 
	C151.536438,258.287262 151.628708,263.787659 152.633759,269.115906 
	C157.200821,293.327972 169.034439,313.269989 188.267975,328.800629 
	C206.333466,343.388092 226.859726,350.943024 250.707870,350.932556 
	C251.095871,350.918152 251.483856,350.903717 252.784454,350.956940 
	C266.127716,350.687531 278.870239,347.991028 291.156311,342.565735 
	C302.023376,337.767059 311.623322,331.346527 320.562347,322.740326 
z"/>
<path fill="#E5E6E6" opacity="1.000000" stroke="none" 
	d="
M151.063019,250.053772 
	C150.059082,197.434891 196.315598,150.725250 249.573273,151.504257 
	C250.023361,163.716568 250.033066,175.447861 249.724335,187.405090 
	C244.384064,188.713135 239.333420,189.682037 234.358536,190.948639 
	C232.925995,191.313370 230.844818,192.305496 230.552505,193.406097 
	C229.474609,197.464508 229.021896,201.688965 227.965546,205.918259 
	C210.302307,215.588882 201.195847,230.327576 199.514862,250.011383 
	C183.052567,250.022095 167.057785,250.037933 151.063019,250.053772 
M169.385925,220.055328 
	C169.239868,220.351334 169.093826,220.647339 168.263489,220.980530 
	C167.674240,221.389221 167.085007,221.797913 167.445923,221.547577 
	C168.527283,223.724640 169.579147,225.195068 169.974930,226.824844 
	C170.355728,228.392853 170.052734,230.125702 170.059052,231.786102 
	C170.083511,238.215851 170.775085,238.743454 177.556580,237.345627 
	C177.889816,235.697952 178.237305,233.979752 178.562607,232.371201 
	C180.363388,232.022247 181.875626,231.729218 184.035568,231.310669 
	C178.028717,229.123444 177.188812,229.566452 175.983002,234.463562 
	C175.762268,235.359970 174.788284,236.070923 174.162018,236.867477 
	C173.452774,235.992325 172.193054,235.153992 172.131607,234.235489 
	C171.892700,230.664551 172.034271,227.068161 172.034271,222.900696 
	C179.717438,222.900696 186.677292,222.900696 193.637146,222.900696 
	C193.698395,222.583206 193.759644,222.265701 193.820892,221.948212 
	C193.202637,221.577011 192.584381,221.205811 191.892334,220.250214 
	C191.243103,219.835403 190.593887,219.420593 188.864197,218.315460 
	C190.021835,220.279602 190.489639,221.073318 190.028564,221.940948 
	C183.032990,221.639389 176.037399,221.337845 169.516541,220.880814 
	C169.715942,220.620117 169.915359,220.359421 170.425354,219.898376 
	C170.332092,219.750397 170.238846,219.602417 170.145584,219.454437 
	C170.044098,219.577499 169.942612,219.700562 169.385925,220.055328 
M216.451019,184.920410 
	C216.425583,184.712128 216.400146,184.503845 216.374695,184.295563 
	C216.219513,184.503143 216.064331,184.710724 215.448715,185.083023 
	C215.148819,185.255325 214.949066,185.507111 214.112717,185.685226 
	C213.261169,183.749359 212.409622,181.813492 211.512543,179.774124 
	C209.962006,182.296707 208.923767,183.985855 207.401749,185.505356 
	C207.548386,186.962204 207.695023,188.419067 207.860306,190.697174 
	C208.395859,191.403015 208.801651,192.536301 209.488205,192.744720 
	C213.665085,194.012711 214.922287,192.473648 215.550491,185.884033 
	C215.831741,185.686249 216.005737,185.418686 216.451019,184.920410 
M216.060272,175.459076 
	C216.250854,175.447372 216.441422,175.435654 216.632004,175.423950 
	C216.447678,175.260117 216.263336,175.096283 215.757111,174.433228 
	C215.207687,174.249619 214.658279,174.066010 213.626236,173.326691 
	C212.334015,173.216858 211.041794,173.107040 209.749573,172.997208 
	C209.729202,173.294601 209.708832,173.591980 209.688461,173.889374 
	C211.103882,173.954178 212.519318,174.018997 214.266418,174.567963 
	C214.812958,174.747574 215.359497,174.927185 216.060272,175.459076 
M172.591904,217.943237 
	C173.224503,217.575638 173.857101,217.208023 174.489700,216.840424 
	C174.374298,216.584869 174.258911,216.329300 174.143509,216.073746 
	C173.411118,216.429642 172.678726,216.785538 171.651733,217.274078 
	C171.651733,217.274078 171.587616,217.692230 171.587616,217.692230 
	C171.587616,217.692230 171.963120,217.982681 172.591904,217.943237 
M217.029694,180.355484 
	C217.121948,181.025620 217.214188,181.695755 217.306442,182.365891 
	C217.714828,182.325882 218.123215,182.285858 218.531601,182.245850 
	C218.432785,180.734879 218.333984,179.223907 218.235168,177.712952 
	C217.864212,177.735947 217.493256,177.758942 217.122299,177.781952 
	C217.091354,178.402603 217.060394,179.023239 217.029694,180.355484 
M183.670181,214.776886 
	C184.214432,214.626953 184.758682,214.477020 185.302933,214.327103 
	C184.255814,213.513565 183.208679,212.700027 182.161560,211.886475 
	C181.941422,212.183289 181.721283,212.480118 181.501144,212.776932 
	C182.040146,213.343399 182.579132,213.909866 183.670181,214.776886 
M205.489990,176.348816 
	C205.540482,176.150467 205.590973,175.952103 205.641479,175.753754 
	C205.522308,175.879303 205.403137,176.004837 205.489990,176.348816 
M205.407867,184.481903 
	C205.407867,184.481903 205.526047,184.410721 205.407867,184.481903 
M207.714996,174.528381 
	C207.714996,174.528381 207.412857,174.391357 207.412857,174.391357 
	C207.412857,174.391357 207.481018,174.698196 207.714996,174.528381 
z"/>
<path fill="#E5E6E6" opacity="1.000000" stroke="none" 
	d="
M250.128128,350.889191 
	C226.859726,350.943024 206.333466,343.388092 188.267975,328.800629 
	C169.034439,313.269989 157.200821,293.327972 152.633759,269.115906 
	C151.628708,263.787659 151.536438,258.287262 151.505157,252.425766 
	C167.984833,251.984512 183.983185,251.983612 199.990936,252.417023 
	C200.367981,255.780457 200.326431,258.836090 201.184952,261.613495 
	C203.233124,268.239441 204.149185,275.533661 210.668976,280.407440 
	C210.967422,283.171997 211.123444,285.517303 211.218597,288.274170 
	C211.427292,290.482056 211.781998,292.270355 211.952042,294.076080 
	C212.805801,303.142609 220.592468,307.694855 229.100098,304.491180 
	C232.058640,303.377106 235.511124,303.082092 238.705048,303.213684 
	C242.475540,303.368988 246.210266,304.391968 249.988281,305.504303 
	C250.053421,320.942963 250.090775,335.916077 250.128128,350.889191 
M208.303299,324.011627 
	C207.697281,324.368378 207.091263,324.725128 206.485245,325.081879 
	C207.307159,325.388275 208.129059,325.694672 209.055832,326.710480 
	C212.108688,330.056396 213.202774,330.256714 214.787552,328.644104 
	C213.499496,327.365906 212.307388,326.079041 210.994263,324.930542 
	C210.462769,324.465698 209.667160,324.302765 208.303299,324.011627 
M185.733002,281.330627 
	C186.647247,281.420441 187.561493,281.510284 188.475739,281.600098 
	C188.515045,281.242706 188.554352,280.885345 188.593658,280.527954 
	C187.551147,280.339844 186.508636,280.151733 184.864853,279.362610 
	C183.577194,280.000763 181.226227,280.563019 181.174423,281.289337 
	C180.838058,286.004181 181.001862,290.754730 181.001862,295.973053 
	C183.273407,295.868927 184.863480,295.796051 186.453552,295.723175 
	C186.476990,295.380432 186.500427,295.037689 186.523865,294.694946 
	C185.084991,294.248962 183.646103,293.802979 182.414459,293.421234 
	C182.414459,288.850616 182.414459,284.670197 182.414459,280.223816 
	C183.612778,280.598541 184.371689,280.835876 185.733002,281.330627 
M216.382126,318.611267 
	C219.842773,318.738708 223.318832,319.093628 226.755081,318.860962 
	C227.847580,318.786987 229.282288,317.322601 229.726639,316.172333 
	C230.078079,315.262604 229.507812,313.480621 228.726135,312.751373 
	C226.798752,310.953247 217.160629,312.154175 215.238846,314.536591 
	C215.426270,314.749542 215.656265,314.895477 215.922272,315.631134 
	C215.876694,316.066193 215.831116,316.501282 215.266541,316.698303 
	C214.647629,316.807526 214.028732,316.916748 213.409821,317.026001 
	C214.195282,317.351440 214.980759,317.676880 216.382126,318.611267 
M184.417435,271.416504 
	C184.513626,270.513855 184.609833,269.611176 184.684036,268.914886 
	C177.585770,270.455933 170.855347,271.055328 163.921738,268.637268 
	C163.793228,275.159546 170.314331,270.107635 172.565033,272.971313 
	C172.565033,275.993225 172.565033,279.287170 172.565033,282.581116 
	C172.267410,282.708374 171.969772,282.835632 171.672150,282.962891 
	C171.186523,281.956360 170.700912,280.949829 170.215286,279.943329 
	C169.730103,280.438751 169.244934,280.934174 168.759750,281.429596 
	C169.858139,282.512115 170.956528,283.594666 172.054932,284.677185 
	C173.040070,283.329773 174.624298,282.086121 174.879532,280.612305 
	C175.341400,277.945343 175.010345,275.141022 175.010345,272.249878 
	C178.470444,272.089294 181.105728,271.966980 184.417435,271.416504 
M194.581863,295.936340 
	C195.895935,295.826111 197.210022,295.715881 198.524094,295.605652 
	C198.517761,295.288239 198.511444,294.970795 198.505112,294.653351 
	C197.059280,294.199463 195.613449,293.745575 194.363937,293.353302 
	C194.019135,291.440979 193.737122,289.876953 193.501846,288.572083 
	C190.866318,288.572083 188.733414,288.572083 186.600510,288.572083 
	C186.580872,288.905945 186.561234,289.239807 186.541580,289.573639 
	C188.504349,289.853180 190.467117,290.132721 192.352707,290.401276 
	C192.869263,292.307831 193.327484,293.999054 194.581863,295.936340 
M193.284546,281.789154 
	C194.237274,281.111542 195.190018,280.433899 196.142761,279.756287 
	C195.110596,280.583618 191.620712,278.548767 193.284546,281.789154 
M189.668549,275.452118 
	C190.243790,275.472137 190.820053,275.509003 191.391968,275.474304 
	C191.430099,275.472015 191.435287,274.926544 191.455795,274.633698 
	C190.902557,274.729858 190.349335,274.826050 189.668549,275.452118 
M208.730301,319.940369 
	C208.386795,319.964966 208.043289,319.989563 207.699783,320.014160 
	C207.771667,320.255402 207.843567,320.496643 207.915451,320.737885 
	C208.166016,320.618195 208.416580,320.498505 208.730301,319.940369 
M226.351929,327.668762 
	C226.470917,327.421387 226.589890,327.173981 226.708878,326.926605 
	C226.471649,326.854889 226.234421,326.783173 225.997192,326.711426 
	C225.971222,327.051941 225.945236,327.392426 226.351929,327.668762 
M232.059616,323.730255 
	C232.034988,323.386749 232.010361,323.043274 231.985733,322.699738 
	C231.744507,322.771667 231.503281,322.843567 231.262054,322.915497 
	C231.381775,323.166046 231.501495,323.416626 232.059616,323.730255 
M226.921478,323.479675 
	C226.776260,323.235504 226.631027,322.991364 226.485825,322.747192 
	C226.351288,322.998962 226.055405,323.314667 226.123352,323.486176 
	C226.206924,323.697113 226.594040,323.787720 226.921478,323.479675 
M166.326645,263.514465 
	C166.326645,263.514465 166.587387,263.658051 166.587387,263.658051 
	C166.587387,263.658051 166.543365,263.350433 166.326645,263.514465 
M165.300720,265.467041 
	C165.300720,265.467041 165.582184,265.613190 165.582184,265.613190 
	C165.582184,265.613190 165.523209,265.265564 165.300720,265.467041 
z"/>
<path fill="#E5E6E6" opacity="1.000000" stroke="none" 
	d="
M350.923035,251.905624 
	C350.605164,278.045776 341.534729,300.660492 322.999207,319.721527 
	C320.811768,318.543060 319.087769,317.505585 317.688934,316.135986 
	C311.760254,310.331177 305.981934,304.372040 300.015930,298.606689 
	C298.803436,297.434967 297.016479,296.857666 295.391388,295.551178 
	C295.479431,288.088928 295.670441,281.081879 296.160126,273.870117 
	C298.312927,266.433624 300.167053,259.201813 302.488403,251.979706 
	C318.944794,251.961456 334.933899,251.933548 350.923035,251.905624 
M328.634216,285.939178 
	C329.090973,285.324677 329.547729,284.710175 330.004456,284.095642 
	C329.788086,283.949585 329.571686,283.803497 329.355286,283.657440 
	C328.893250,284.431335 328.431213,285.205261 327.571747,286.242188 
	C327.587372,286.596893 327.602997,286.951569 327.618622,287.306274 
	C327.757324,286.882568 327.896027,286.458832 328.634216,285.939178 
M314.417206,288.072113 
	C314.719116,284.858612 315.021027,281.645142 315.373810,277.890167 
	C318.326782,278.075653 321.044495,278.246368 323.762207,278.417084 
	C323.817871,278.221588 323.873535,278.026093 323.929169,277.830597 
	C318.964813,276.779602 314.000427,275.728607 309.036041,274.677612 
	C308.969757,275.004913 308.903442,275.332184 308.837158,275.659454 
	C310.416016,275.874878 311.994843,276.090271 314.108459,276.378632 
	C314.108459,280.171997 314.108459,283.782990 314.417206,288.072113 
M319.758453,266.906586 
	C319.225128,267.100159 318.691803,267.293762 318.158478,267.487335 
	C318.908020,268.700348 319.657532,269.913361 320.407074,271.126373 
	C320.713989,270.902283 321.020905,270.678192 321.327820,270.454102 
	C320.878815,269.477783 320.429840,268.501495 319.758453,266.906586 
M328.859985,268.811951 
	C328.690247,268.005707 328.520538,267.199493 328.350830,266.393250 
	C327.934265,266.537598 327.517700,266.681976 327.101105,266.826324 
	C327.554901,267.639862 328.008667,268.453400 328.859985,268.811951 
M326.389893,264.202728 
	C326.785248,264.206879 327.180634,264.211029 327.575989,264.215179 
	C327.577545,264.051117 327.590057,263.744446 327.579010,263.743591 
	C327.185547,263.713257 326.789917,263.711639 326.389893,264.202728 
M331.029388,281.822021 
	C331.435760,281.726776 331.842163,281.631531 332.248535,281.536285 
	C332.159424,281.415558 332.054871,281.182831 331.983734,281.192596 
	C331.571198,281.249481 331.166504,281.363464 331.029388,281.822021 
M321.475128,263.373138 
	C321.529755,263.160278 321.584381,262.947388 321.639008,262.734528 
	C321.504669,262.871338 321.370361,263.008148 321.475128,263.373138 
M333.411102,279.482666 
	C333.411102,279.482666 333.523132,279.415588 333.411102,279.482666 
M332.588379,276.517242 
	C332.588379,276.517242 332.476929,276.583862 332.588379,276.517242 
z"/>
<path fill="#E5E6E6" opacity="1.000000" stroke="none" 
	d="
M322.996826,182.001221 
	C331.342194,190.373199 337.758545,199.969498 342.560516,210.829651 
	C347.990387,223.109741 350.656555,235.854050 350.486328,249.605194 
	C334.008636,250.027084 318.014923,250.028519 302.011047,249.595978 
	C301.326691,241.397812 299.926025,233.834290 295.681976,227.100937 
	C293.131561,223.054657 290.504547,219.056641 288.219116,214.894562 
	C298.424225,204.928116 308.294769,195.075958 318.252533,185.312836 
	C319.610687,183.981232 321.404633,183.094131 322.996826,182.001221 
M331.926941,210.238678 
	C331.619659,209.995331 331.312408,209.751999 331.137665,208.870102 
	C330.689697,207.626465 330.241730,206.382843 329.793762,205.139236 
	C328.926056,205.726288 328.058350,206.313339 327.190613,206.900375 
	C328.296631,207.935104 329.402618,208.969833 330.808044,210.524261 
	C331.096222,210.792816 331.384369,211.061371 331.867249,211.791504 
	C332.135376,211.980850 332.403503,212.170181 332.746857,213.014282 
	C332.837341,213.665588 332.927826,214.316910 332.976440,214.987183 
	C332.976440,214.987183 332.966705,215.032089 332.322418,215.223068 
	C332.211456,215.644241 332.100494,216.065399 331.873383,217.090576 
	C331.704529,217.910339 331.535675,218.730118 331.366821,219.549881 
	C331.683624,219.748566 332.000427,219.947250 332.317230,220.145920 
	C333.902283,218.173492 335.487335,216.201065 337.120850,214.168350 
	C336.573761,214.110947 335.957184,214.046234 334.976349,213.478302 
	C334.414490,212.886612 333.852631,212.294907 333.013763,211.313400 
	C332.813812,211.055847 332.566742,210.856750 331.926941,210.238678 
M323.758667,224.316772 
	C322.849121,224.095123 321.939575,223.873459 320.914429,222.989212 
	C319.285828,221.972473 317.657257,220.955750 316.331726,219.361008 
	C317.736176,217.806808 319.140594,216.252625 320.545044,214.698425 
	C320.164612,214.341064 319.784180,213.983688 319.403717,213.626328 
	C317.788177,215.126160 316.142303,216.597244 314.629181,218.194122 
	C314.533997,218.294601 315.475433,219.377319 316.277283,220.643555 
	C316.879181,221.800873 317.481079,222.958191 318.835175,225.561783 
	C312.848907,223.683746 310.172119,225.824600 308.756714,229.986816 
	C308.673492,230.231628 308.235565,230.355865 307.328430,231.142776 
	C307.535797,233.750580 307.743134,236.358383 307.955902,239.038452 
	C307.955902,239.038452 308.027161,239.051514 308.298004,239.732101 
	C310.083832,246.386856 315.474548,244.914017 320.173737,244.997711 
	C320.672424,245.006592 321.171417,244.998901 321.670258,244.998901 
	C334.001801,244.998917 333.949341,244.998627 334.016052,232.611435 
	C334.065765,223.375656 333.696960,225.764648 325.966125,224.646866 
	C325.344971,224.557053 324.669067,224.845520 323.999969,225.000000 
	C323.999969,225.000000 324.033600,224.969193 323.758667,224.316772 
M327.590546,219.440582 
	C327.000610,218.032196 326.410675,216.623810 325.820740,215.215424 
	C325.267120,215.558517 324.713501,215.901596 324.159882,216.244675 
	C325.113800,217.426651 326.067719,218.608627 327.590546,219.440582 
M317.273712,203.879761 
	C317.466431,204.424683 317.659149,204.969589 317.851868,205.514496 
	C318.131195,205.386780 318.410553,205.259064 318.689880,205.131348 
	C318.363220,204.570450 318.036560,204.009567 317.273712,203.879761 
M317.266876,200.098572 
	C317.767212,200.043488 318.267578,199.988403 318.767914,199.933304 
	C318.652832,199.485214 318.537720,199.037140 318.422607,198.589050 
	C317.995483,198.892319 317.568390,199.195602 317.266876,200.098572 
M314.430206,203.703003 
	C314.703613,203.989410 314.976990,204.275803 315.250397,204.562180 
	C315.368927,204.448822 315.596741,204.243118 315.590240,204.235413 
	C315.335022,203.933365 315.058533,203.649323 314.430206,203.703003 
M329.477081,221.384430 
	C329.533478,221.164703 329.589874,220.944962 329.646301,220.725235 
	C329.507324,220.866714 329.368347,221.008179 329.477081,221.384430 
z"/>
<path fill="#E5E6E6" opacity="1.000000" stroke="none" 
	d="
M251.947296,151.061447 
	C278.077789,151.384628 300.486450,160.936890 319.721466,179.001038 
	C308.788879,190.760590 297.844635,201.907074 286.542511,213.041504 
	C284.920197,212.332169 283.634552,211.670395 282.394806,210.931656 
	C276.204041,207.242630 270.564575,202.358597 262.720520,201.582977 
	C262.445831,199.727859 262.346222,198.256454 262.168762,196.794510 
	C261.591553,192.040451 256.250000,186.823013 252.014984,186.394409 
	C251.987427,174.310471 251.967361,162.685959 251.947296,151.061447 
M299.097626,178.676559 
	C299.401611,178.969467 299.705627,179.262360 300.009613,179.555252 
	C300.190887,179.355164 300.372162,179.155075 300.553436,178.954987 
	C300.086578,178.652176 299.619690,178.349365 298.776154,177.323517 
	C292.981873,176.622467 287.187561,175.921402 281.360138,175.216354 
	C281.259003,174.721695 281.127045,174.240448 281.065582,173.750381 
	C280.439880,168.762436 277.425110,166.676407 271.384949,167.064438 
	C267.648407,167.304489 265.010529,170.351044 264.984589,174.538757 
	C264.955719,179.196014 264.851746,183.859726 265.072205,188.506790 
	C265.127930,189.681549 266.209229,191.736206 266.963409,191.804916 
	C274.136841,192.458572 281.341339,192.771194 288.736511,193.193253 
	C288.995850,189.769409 289.191345,187.188370 289.403015,184.393784 
	C292.600037,184.393784 295.494263,184.393784 298.597717,184.393784 
	C298.818359,186.851013 299.013824,189.027832 299.209320,191.204666 
	C299.398346,191.188171 299.587402,191.171692 299.776428,191.155197 
	C299.776428,188.593811 299.776428,186.032425 299.776428,183.161499 
	C296.588531,183.001877 293.692383,182.856888 290.900055,182.717087 
	C290.900055,181.016754 290.900055,179.602295 290.900055,178.140060 
	C293.753357,178.140060 296.397766,178.140060 299.097626,178.676559 
z"/>
<path fill="#E5E6E6" opacity="1.000000" stroke="none" 
	d="
M319.998779,322.997437 
	C311.623322,331.346527 302.023376,337.767059 291.156311,342.565735 
	C278.870239,347.991028 266.127716,350.687531 252.360840,350.466431 
	C251.918686,335.168945 251.900162,320.361908 252.325897,305.629913 
	C258.643799,306.608856 264.505829,307.600067 270.395447,308.383881 
	C273.917664,308.852692 277.483124,308.996643 281.395813,309.247528 
	C287.322845,306.348389 293.072540,303.695648 295.414734,297.163757 
	C303.064453,304.650665 310.459930,311.947113 317.764893,319.333069 
	C318.743805,320.322815 319.265411,321.764862 319.998779,322.997437 
M265.042999,322.074707 
	C269.579498,322.074707 274.116028,322.074707 279.291260,322.074707 
	C278.827087,325.184357 278.473785,327.551117 277.697540,330.527161 
	C276.130554,331.030884 274.563538,331.534607 272.186951,331.941833 
	C271.363342,331.915619 270.539734,331.889374 269.454193,331.784668 
	C269.454193,331.784668 269.190826,331.858246 268.311188,331.896179 
	C263.353668,332.557465 261.139862,330.558105 261.904358,325.456635 
	C262.117340,324.035370 261.936768,322.555084 261.936768,321.101898 
	C261.743713,321.118713 261.550659,321.135498 261.357605,321.152313 
	C261.357605,324.903076 261.357605,328.653870 261.357605,332.619659 
	C264.074188,332.837830 266.522064,333.034393 268.420563,333.733643 
	C266.734436,333.998779 265.048309,334.263916 262.310242,334.694489 
	C266.965576,340.277374 272.387939,337.122192 276.916901,337.831818 
	C278.198090,338.032562 279.718811,336.704712 281.129639,336.077942 
	C280.889832,335.356201 280.650024,334.634430 280.410187,333.912689 
	C277.402527,334.370270 274.394867,334.827850 271.182587,335.316559 
	C271.134521,334.596863 271.082184,333.813171 271.645508,332.951508 
	C272.054321,332.894348 272.463135,332.837189 273.794250,332.925446 
	C276.786407,332.553284 282.021912,332.837982 282.358551,331.688202 
	C283.457764,327.934265 282.770691,323.657257 282.770691,319.581451 
	C282.193481,319.589691 281.616272,319.597931 281.039062,319.606171 
	C281.039062,321.647339 281.181824,323.701996 280.990356,325.725037 
	C280.855988,327.144958 280.266083,328.521790 280.034332,329.027557 
	C280.034332,326.459595 280.034332,323.891632 280.034332,320.571777 
	C274.053894,321.002869 268.872437,321.376373 263.197815,322.395294 
	C263.197815,324.689667 263.197815,326.984009 263.197815,329.278381 
	C263.507080,329.279236 263.816345,329.280121 264.125610,329.280975 
	C264.125610,326.892548 264.125610,324.504089 265.042999,322.074707 
M294.005951,312.885132 
	C292.500580,313.615967 290.995209,314.346771 289.489838,315.077576 
	C289.476074,315.338348 289.462280,315.599091 289.448486,315.859863 
	C293.447205,315.859863 297.445923,315.859863 301.611969,315.859863 
	C302.199615,320.128265 302.685547,323.657684 303.270477,327.906311 
	C297.480225,327.330750 292.154877,329.840607 287.054230,326.028168 
	C287.497253,327.578064 288.377869,329.701843 289.400696,329.772705 
	C294.466766,330.123749 299.570374,329.932617 305.642212,329.932617 
	C303.075500,323.178070 306.557220,315.000244 297.288971,312.413391 
	C297.183319,312.383911 297.140717,312.128510 297.694061,311.878784 
	C297.139313,311.253845 296.584564,310.628906 296.029785,310.003967 
	C295.402435,310.752045 294.775085,311.500153 294.005951,312.885132 
M289.352448,320.669922 
	C289.471619,320.421967 289.590820,320.174042 289.709991,319.926086 
	C289.472290,319.854218 289.234558,319.782349 288.996857,319.710480 
	C288.970856,320.051697 288.944855,320.392883 289.352448,320.669922 
z"/>
<path fill="#E5E5E5" opacity="1.000000" stroke="none" 
	d="
M286.900360,213.053574 
	C297.844635,201.907074 308.788879,190.760590 319.868988,179.303192 
	C320.917358,179.806412 321.829926,180.620544 322.869629,181.717957 
	C321.404633,183.094131 319.610687,183.981232 318.252533,185.312836 
	C308.294769,195.075958 298.424225,204.928116 287.982849,214.722839 
	C287.259796,214.146835 287.080078,213.600204 286.900360,213.053574 
z"/>
<path fill="#B9B3B7" opacity="1.000000" stroke="none" 
	d="
M302.021210,250.029968 
	C318.014923,250.028519 334.008636,250.027084 350.462738,250.059952 
	C350.941071,250.497238 350.959045,250.900208 350.950012,251.604401 
	C334.933899,251.933548 318.944794,251.961456 302.453918,251.657074 
	C301.975189,250.893173 301.998199,250.461578 302.021210,250.029968 
z"/>
<path fill="#BFD5D2" opacity="1.000000" stroke="none" 
	d="
M199.981522,251.982727 
	C183.983185,251.983612 167.984833,251.984512 151.524750,251.965790 
	C151.048492,251.525314 151.034012,251.104446 151.041275,250.368683 
	C167.057785,250.037933 183.052567,250.022095 199.535583,250.338806 
	C200.009735,251.108459 199.995621,251.545593 199.981522,251.982727 
z"/>
<path fill="#EDB6A9" opacity="1.000000" stroke="none" 
	d="
M251.881638,305.554901 
	C251.900162,320.361908 251.918686,335.168945 251.904541,350.432617 
	C251.483856,350.903717 251.095871,350.918152 250.417999,350.910889 
	C250.090775,335.916077 250.053421,320.942963 250.252655,305.489868 
	C250.953369,305.191528 251.417511,305.373230 251.881638,305.554901 
z"/>
<path fill="#E6E5E5" opacity="1.000000" stroke="none" 
	d="
M320.280579,322.868896 
	C319.265411,321.764862 318.743805,320.322815 317.764893,319.333069 
	C310.459930,311.947113 303.064453,304.650665 295.424591,296.885620 
	C295.266052,296.298828 295.380219,296.152588 295.494354,296.006348 
	C297.016479,296.857666 298.803436,297.434967 300.015930,298.606689 
	C305.981934,304.372040 311.760254,310.331177 317.688934,316.135986 
	C319.087769,317.505585 320.811768,318.543060 322.697144,319.869080 
	C322.192841,320.916687 321.377594,321.828491 320.280579,322.868896 
z"/>
<path fill="#BFD5D2" opacity="1.000000" stroke="none" 
	d="
M251.631729,151.039948 
	C251.967361,162.685959 251.987427,174.310471 251.696274,186.510132 
	C250.937622,187.116562 250.490204,187.147858 250.042770,187.179153 
	C250.033066,175.447861 250.023361,163.716568 250.033173,151.523346 
	C250.473862,151.047089 250.895004,151.032761 251.631729,151.039948 
z"/>
<path fill="#FFFEFE" opacity="1.000000" stroke="none" 
	d="
M199.990936,252.417023 
	C199.995621,251.545593 200.009735,251.108459 200.003113,250.343903 
	C201.195847,230.327576 210.302307,215.588882 228.189163,206.182709 
	C229.629242,208.535782 230.477158,210.691681 231.157898,213.166199 
	C229.346222,217.652405 232.148880,219.597366 234.804688,221.982742 
	C236.550461,223.550735 237.468887,226.039902 238.833649,228.344559 
	C239.109024,228.846802 239.376663,229.007553 239.777466,229.380463 
	C239.555801,230.755798 239.269119,231.805481 238.618988,232.898682 
	C231.679443,236.133041 225.067245,239.252106 218.537186,242.534561 
	C211.764786,245.938843 208.428268,251.517319 208.888885,259.115875 
	C209.311066,266.080811 209.971237,273.031311 210.526550,279.988190 
	C204.149185,275.533661 203.233124,268.239441 201.184952,261.613495 
	C200.326431,258.836090 200.367981,255.780457 199.990936,252.417023 
z"/>
<path fill="#382030" opacity="1.000000" stroke="none" 
	d="
M231.325089,212.847565 
	C230.477158,210.691681 229.629242,208.535782 228.557709,206.115433 
	C229.021896,201.688965 229.474609,197.464508 230.552505,193.406097 
	C230.844818,192.305496 232.925995,191.313370 234.358536,190.948639 
	C239.333420,189.682037 244.384064,188.713135 249.724335,187.405090 
	C250.490204,187.147858 250.937622,187.116562 251.703766,186.969559 
	C256.250000,186.823013 261.591553,192.040451 262.168762,196.794510 
	C262.346222,198.256454 262.445831,199.727859 262.645874,201.979233 
	C262.714813,203.834564 262.718964,204.905579 262.598053,205.858307 
	C262.472992,205.740021 262.147400,205.628220 262.092529,205.284332 
	C261.060730,203.036835 260.273193,200.997803 259.041809,199.276184 
	C258.189453,198.084457 256.548615,196.358459 255.562195,196.537323 
	C248.659576,197.788956 241.835678,199.474686 234.731369,201.149597 
	C234.412628,201.828918 234.349106,202.380157 234.182434,203.352600 
	C233.161240,206.798401 232.243164,209.822983 231.325089,212.847565 
z"/>
<path fill="#A5CAC5" opacity="1.000000" stroke="none" 
	d="
M169.041824,221.036285 
	C176.037399,221.337845 183.032990,221.639389 190.737762,221.825012 
	C191.620010,221.417587 191.793076,221.126099 191.966125,220.834625 
	C192.584381,221.205811 193.202637,221.577011 193.820892,221.948212 
	C193.759644,222.265701 193.698395,222.583206 193.637146,222.900696 
	C186.677292,222.900696 179.717438,222.900696 172.034271,222.900696 
	C172.034271,227.068161 171.892700,230.664551 172.131607,234.235489 
	C172.193054,235.153992 173.452774,235.992325 174.162018,236.867477 
	C174.788284,236.070923 175.762268,235.359970 175.983002,234.463562 
	C177.188812,229.566452 178.028717,229.123444 184.035568,231.310669 
	C181.875626,231.729218 180.363388,232.022247 178.562607,232.371201 
	C178.237305,233.979752 177.889816,235.697952 177.556580,237.345627 
	C170.775085,238.743454 170.083511,238.215851 170.059052,231.786102 
	C170.052734,230.125702 170.355728,228.392853 169.974930,226.824844 
	C169.579147,225.195068 168.527283,223.724640 167.445923,221.547577 
	C167.085007,221.797913 167.674240,221.389221 168.628265,220.986053 
	C168.993042,220.991577 169.041824,221.036285 169.041824,221.036285 
z"/>
<path fill="#A5CAC5" opacity="1.000000" stroke="none" 
	d="
M207.885513,185.674988 
	C208.923767,183.985855 209.962006,182.296707 211.512543,179.774124 
	C212.409622,181.813492 213.261169,183.749359 214.547180,185.831253 
	C214.981644,185.977280 215.115036,186.102112 215.115036,186.102112 
	C214.922287,192.473648 213.665085,194.012711 209.488205,192.744720 
	C208.801651,192.536301 208.395859,191.403015 208.292114,190.317230 
	C210.473755,189.706970 212.223602,189.476639 213.973450,189.246323 
	C213.897797,188.814072 213.822128,188.381836 213.746475,187.949585 
	C211.792831,187.191391 209.839172,186.433182 207.885513,185.674988 
z"/>
<path fill="#BFD5D2" opacity="1.000000" stroke="none" 
	d="
M207.643631,185.590179 
	C209.839172,186.433182 211.792831,187.191391 213.746475,187.949585 
	C213.822128,188.381836 213.897797,188.814072 213.973450,189.246323 
	C212.223602,189.476639 210.473755,189.706970 208.282776,189.906601 
	C207.695023,188.419067 207.548386,186.962204 207.643631,185.590179 
z"/>
<path fill="#A5CAC5" opacity="1.000000" stroke="none" 
	d="
M217.029572,179.999695 
	C217.060394,179.023239 217.091354,178.402603 217.122299,177.781952 
	C217.493256,177.758942 217.864212,177.735947 218.235168,177.712952 
	C218.333984,179.223907 218.432785,180.734879 218.531601,182.245850 
	C218.123215,182.285858 217.714828,182.325882 217.306442,182.365891 
	C217.214188,181.695755 217.121948,181.025620 217.029572,179.999695 
z"/>
<path fill="#E5E5E5" opacity="1.000000" stroke="none" 
	d="
M183.394150,214.626617 
	C182.579132,213.909866 182.040146,213.343399 181.501144,212.776932 
	C181.721283,212.480118 181.941422,212.183289 182.161560,211.886475 
	C183.208679,212.700027 184.255814,213.513565 185.302933,214.327087 
	C184.758682,214.477020 184.214432,214.626953 183.394150,214.626617 
z"/>
<path fill="#E5E5E5" opacity="1.000000" stroke="none" 
	d="
M191.929230,220.542419 
	C191.793076,221.126099 191.620010,221.417587 191.202209,221.788055 
	C190.489639,221.073318 190.021835,220.279602 188.864197,218.315460 
	C190.593887,219.420593 191.243103,219.835403 191.929230,220.542419 
z"/>
<path fill="#E5E5E5" opacity="1.000000" stroke="none" 
	d="
M171.946350,217.141418 
	C172.678726,216.785538 173.411118,216.429642 174.143509,216.073746 
	C174.258911,216.329300 174.374298,216.584869 174.489700,216.840424 
	C173.857101,217.208023 173.224503,217.575638 172.268616,217.752869 
	C171.945312,217.562485 171.946350,217.141434 171.946350,217.141418 
z"/>
<path fill="#A5CAC5" opacity="1.000000" stroke="none" 
	d="
M213.934753,174.083817 
	C212.519318,174.018997 211.103882,173.954178 209.688461,173.889374 
	C209.708832,173.591980 209.729202,173.294601 209.749573,172.997208 
	C211.041794,173.107040 212.334015,173.216858 213.822174,173.654984 
	C214.018127,173.983276 213.934753,174.083817 213.934753,174.083817 
z"/>
<path fill="#A5CAC5" opacity="1.000000" stroke="none" 
	d="
M215.906036,175.106796 
	C215.359497,174.927185 214.812958,174.747574 214.100586,174.325897 
	C213.934753,174.083817 214.018127,173.983276 214.063492,173.932831 
	C214.658279,174.066010 215.207687,174.249619 215.873230,174.724854 
	C215.989365,175.016479 215.906036,175.106796 215.906036,175.106796 
z"/>
<path fill="#A5CAC5" opacity="1.000000" stroke="none" 
	d="
M205.386963,176.239594 
	C205.403137,176.004837 205.522308,175.879303 205.641479,175.753754 
	C205.590973,175.952103 205.540482,176.150467 205.386963,176.239594 
z"/>
<path fill="#BFD5D2" opacity="1.000000" stroke="none" 
	d="
M205.466949,184.446320 
	C205.526047,184.410721 205.407867,184.481903 205.466949,184.446320 
z"/>
<path fill="#A5CAC5" opacity="1.000000" stroke="none" 
	d="
M215.909134,184.918289 
	C216.064331,184.710724 216.219513,184.503143 216.374695,184.295563 
	C216.400146,184.503845 216.425583,184.712128 216.222382,184.958618 
	C215.993759,184.996841 215.909134,184.918289 215.909134,184.918289 
z"/>
<path fill="#A5CAC5" opacity="1.000000" stroke="none" 
	d="
M216.033112,185.039093 
	C216.005737,185.418686 215.831741,185.686249 215.332764,185.993073 
	C215.115036,186.102112 214.981644,185.977280 214.915558,185.907837 
	C214.949066,185.507111 215.148819,185.255325 215.678925,185.000656 
	C215.909134,184.918289 215.993759,184.996841 216.033112,185.039093 
z"/>
<path fill="#A5CAC5" opacity="1.000000" stroke="none" 
	d="
M207.598007,174.613281 
	C207.481018,174.698196 207.412857,174.391357 207.412857,174.391357 
	C207.412857,174.391357 207.714996,174.528381 207.598007,174.613281 
z"/>
<path fill="#A5CAC5" opacity="1.000000" stroke="none" 
	d="
M168.970413,220.967468 
	C169.093826,220.647339 169.239868,220.351334 169.679962,220.010223 
	C169.973984,219.965103 170.114746,220.098709 170.114746,220.098724 
	C169.915359,220.359421 169.715942,220.620117 169.279175,220.958557 
	C169.041824,221.036285 168.993042,220.991577 168.970413,220.967468 
z"/>
<path fill="#A5CAC5" opacity="1.000000" stroke="none" 
	d="
M169.907547,219.894363 
	C169.942612,219.700562 170.044098,219.577499 170.145584,219.454437 
	C170.238846,219.602417 170.332092,219.750397 170.270050,219.998535 
	C170.114746,220.098709 169.973984,219.965103 169.907547,219.894363 
z"/>
<path fill="#A5CAC5" opacity="1.000000" stroke="none" 
	d="
M171.799042,217.207764 
	C171.946350,217.141434 171.945312,217.562485 171.954224,217.772583 
	C171.963120,217.982681 171.587616,217.692230 171.587616,217.692230 
	C171.587616,217.692230 171.651733,217.274078 171.799042,217.207764 
z"/>
<path fill="#A5CAC5" opacity="1.000000" stroke="none" 
	d="
M216.034180,174.974457 
	C216.263336,175.096283 216.447678,175.260117 216.632004,175.423950 
	C216.441422,175.435654 216.250854,175.447372 215.983154,175.282928 
	C215.906036,175.106796 215.989365,175.016479 216.034180,174.974457 
z"/>
<path fill="#FE967A" opacity="1.000000" stroke="none" 
	d="
M231.157928,213.166199 
	C232.243164,209.822983 233.161240,206.798401 234.374420,203.168427 
	C234.775192,202.049194 234.880875,201.535339 234.986572,201.021484 
	C241.835678,199.474686 248.659576,197.788956 255.562195,196.537323 
	C256.548615,196.358459 258.189453,198.084457 259.041809,199.276184 
	C260.273193,200.997803 261.060730,203.036835 262.048462,205.738251 
	C262.383881,210.044601 262.708557,213.553177 263.025269,217.476013 
	C263.065338,222.911484 259.750488,227.929108 263.000000,233.219147 
	C262.986633,233.661148 262.974609,233.837723 262.697266,234.248840 
	C262.288422,235.657089 262.144928,236.830780 261.982117,238.344116 
	C260.976868,240.039902 259.990967,241.396027 258.961548,242.445404 
	C257.997681,241.422897 257.077332,240.707138 256.107697,239.633987 
	C254.945801,236.903595 257.199585,233.063965 252.905670,231.734787 
	C251.928986,231.527237 250.965759,231.655991 249.628174,231.868958 
	C246.195801,233.103943 246.514328,234.332214 248.967422,236.015411 
	C250.269745,236.909012 251.173386,238.368942 252.314926,239.515549 
	C253.507034,240.712952 254.768723,241.841049 255.966522,243.354523 
	C254.339127,245.520676 252.074051,247.077393 251.273651,249.189240 
	C248.568985,256.325592 246.383865,263.658875 243.882538,271.278503 
	C242.846512,274.776276 241.927551,277.912292 241.009888,281.048676 
	C240.016083,284.445251 241.394348,285.843201 244.824814,286.070404 
	C252.901398,286.605408 260.964600,287.342407 269.474121,287.981384 
	C275.449036,286.946259 277.837952,289.208771 278.258453,294.867615 
	C278.618744,299.715790 280.063812,304.483337 281.029144,309.286560 
	C277.483124,308.996643 273.917664,308.852692 270.395447,308.383881 
	C264.505829,307.600067 258.643799,306.608856 252.325897,305.629913 
	C251.417511,305.373230 250.953369,305.191528 250.224869,305.024292 
	C246.210266,304.391968 242.475540,303.368988 238.705048,303.213684 
	C235.511124,303.082092 232.058640,303.377106 229.100098,304.491180 
	C220.592468,307.694855 212.805801,303.142609 211.952042,294.076080 
	C211.781998,292.270355 211.427292,290.482056 211.534485,288.231079 
	C218.751144,278.253113 225.855728,268.904236 232.302582,259.121887 
	C234.934311,255.128510 236.642609,250.325043 237.844864,245.651855 
	C238.897659,241.559586 238.653610,237.133682 238.982422,232.855148 
	C239.269119,231.805481 239.555801,230.755798 240.096512,229.538879 
	C241.568390,231.163620 239.426117,235.741196 244.770065,234.273361 
	C244.848404,233.256287 244.934677,232.136215 245.157593,230.955338 
	C245.190567,230.922485 245.086868,230.950409 244.606186,230.974152 
	C242.405411,230.018829 240.581604,229.067688 238.757797,228.116547 
	C237.468887,226.039902 236.550461,223.550735 234.804688,221.982742 
	C232.148880,219.597366 229.346222,217.652405 231.157928,213.166199 
M257.099396,209.328979 
	C257.196381,209.370392 257.293396,209.411789 257.390381,209.453201 
	C257.283508,209.285049 257.176636,209.116882 256.786255,208.554443 
	C256.416809,208.570084 256.047363,208.585724 255.677933,208.601379 
	C256.102844,208.755936 256.527771,208.910492 257.099396,209.328979 
M252.633804,218.581161 
	C252.558487,217.848557 252.483170,217.115936 252.407852,216.383331 
	C250.845657,216.773346 249.283463,217.163361 247.721268,217.553391 
	C247.765289,217.910355 247.809296,218.267319 247.853317,218.624283 
	C249.226852,218.704071 250.600403,218.783859 252.633804,218.581161 
M241.490952,212.865982 
	C241.836487,212.473984 242.182022,212.081985 242.527557,211.690002 
	C241.980316,211.547318 241.433090,211.404617 240.885849,211.261932 
	C240.886505,211.755173 240.887146,212.248398 241.490952,212.865982 
M258.328949,228.352402 
	C258.577057,228.471664 258.825134,228.590927 259.073242,228.710175 
	C259.145142,228.472214 259.217072,228.234253 259.289001,227.996292 
	C258.947662,227.970306 258.606323,227.944336 258.328949,228.352402 
M250.185226,205.261108 
	C250.027115,205.375961 249.869003,205.490799 249.710892,205.605652 
	C249.930908,205.582397 250.150925,205.559143 250.185226,205.261108 
M254.625595,204.474808 
	C254.839142,204.529587 255.052689,204.584366 255.266235,204.639160 
	C255.128952,204.504379 254.991669,204.369598 254.625595,204.474808 
z"/>
<path fill="#FB603B" opacity="1.000000" stroke="none" 
	d="
M238.618988,232.898682 
	C238.653610,237.133682 238.897659,241.559586 237.844864,245.651855 
	C236.642609,250.325043 234.934311,255.128510 232.302582,259.121887 
	C225.855728,268.904236 218.751144,278.253113 211.595367,287.819519 
	C211.123444,285.517303 210.967422,283.171997 210.668961,280.407440 
	C209.971237,273.031311 209.311066,266.080811 208.888885,259.115875 
	C208.428268,251.517319 211.764786,245.938843 218.537186,242.534561 
	C225.067245,239.252106 231.679443,236.133041 238.618988,232.898682 
z"/>
<path fill="#A5CAC5" opacity="1.000000" stroke="none" 
	d="
M215.005081,314.197235 
	C217.160629,312.154175 226.798752,310.953247 228.726135,312.751373 
	C229.507812,313.480621 230.078079,315.262604 229.726639,316.172333 
	C229.282288,317.322601 227.847580,318.786987 226.755081,318.860962 
	C223.318832,319.093628 219.842773,318.738708 216.110352,318.040710 
	C215.820892,317.292267 215.803223,317.114319 215.785553,316.936340 
	C215.831116,316.501282 215.876694,316.066193 216.103409,315.181274 
	C215.858063,314.553375 215.431564,314.375305 215.005081,314.197235 
z"/>
<path fill="#A5CAC5" opacity="1.000000" stroke="none" 
	d="
M184.079224,271.630615 
	C181.105728,271.966980 178.470444,272.089294 175.010345,272.249878 
	C175.010345,275.141022 175.341400,277.945343 174.879532,280.612305 
	C174.624298,282.086121 173.040070,283.329773 172.054932,284.677185 
	C170.956528,283.594666 169.858139,282.512115 168.759750,281.429596 
	C169.244934,280.934174 169.730103,280.438751 170.215286,279.943329 
	C170.700912,280.949829 171.186523,281.956360 171.672150,282.962891 
	C171.969772,282.835632 172.267410,282.708374 172.565033,282.581116 
	C172.565033,279.287170 172.565033,275.993225 172.565033,272.971313 
	C170.314331,270.107635 163.793228,275.159546 163.921738,268.637268 
	C170.855347,271.055328 177.585770,270.455933 184.684036,268.914886 
	C184.609833,269.611176 184.513626,270.513855 184.079224,271.630615 
z"/>
<path fill="#A5CAC5" opacity="1.000000" stroke="none" 
	d="
M194.183777,295.813293 
	C193.327484,293.999054 192.869263,292.307831 192.352707,290.401276 
	C190.467117,290.132721 188.504349,289.853180 186.541580,289.573639 
	C186.561234,289.239807 186.580872,288.905945 186.600510,288.572083 
	C188.733414,288.572083 190.866318,288.572083 193.501846,288.572083 
	C193.737122,289.876953 194.019135,291.440979 194.363937,293.353302 
	C195.613449,293.745575 197.059280,294.199463 198.505112,294.653351 
	C198.511444,294.970795 198.517761,295.288239 198.524094,295.605652 
	C197.210022,295.715881 195.895935,295.826111 194.183777,295.813293 
z"/>
<path fill="#A5CAC5" opacity="1.000000" stroke="none" 
	d="
M185.130600,281.073212 
	C184.371689,280.835876 183.612778,280.598541 182.414459,280.223816 
	C182.414459,284.670197 182.414459,288.850616 182.414459,293.421234 
	C183.646103,293.802979 185.084991,294.248962 186.523865,294.694946 
	C186.500427,295.037689 186.476990,295.380432 186.453552,295.723175 
	C184.863480,295.796051 183.273407,295.868927 181.001862,295.973053 
	C181.001862,290.754730 180.838058,286.004181 181.174423,281.289337 
	C181.226227,280.563019 183.577194,280.000763 185.056168,279.933533 
	C185.208527,280.694061 185.169556,280.883636 185.130600,281.073212 
z"/>
<path fill="#E1E1E1" opacity="1.000000" stroke="none" 
	d="
M208.991745,324.002441 
	C209.667160,324.302765 210.462769,324.465698 210.994263,324.930542 
	C212.307388,326.079041 213.499496,327.365906 214.787552,328.644104 
	C213.202774,330.256714 212.108688,330.056396 209.018860,326.022888 
	C208.985168,324.890991 208.988464,324.446716 208.991745,324.002441 
z"/>
<path fill="#E1E1E1" opacity="1.000000" stroke="none" 
	d="
M192.958832,281.836487 
	C191.620712,278.548767 195.110596,280.583618 196.142761,279.756287 
	C195.190018,280.433899 194.237274,281.111542 192.958832,281.836487 
z"/>
<path fill="#E1E1E1" opacity="1.000000" stroke="none" 
	d="
M185.431793,281.201904 
	C185.169556,280.883636 185.208527,280.694061 185.356812,280.234070 
	C186.508636,280.151733 187.551147,280.339844 188.593658,280.527954 
	C188.554352,280.885345 188.515045,281.242706 188.475739,281.600098 
	C187.561493,281.510284 186.647247,281.420441 185.431793,281.201904 
z"/>
<path fill="#E5E5E5" opacity="1.000000" stroke="none" 
	d="
M208.647522,324.007019 
	C208.988464,324.446716 208.985168,324.890991 208.966415,325.668182 
	C208.129059,325.694672 207.307159,325.388275 206.485245,325.081879 
	C207.091263,324.725128 207.697281,324.368378 208.647522,324.007019 
z"/>
<path fill="#E5E5E5" opacity="1.000000" stroke="none" 
	d="
M215.526031,316.817322 
	C215.803223,317.114319 215.820892,317.292267 215.802399,317.736267 
	C214.980759,317.676880 214.195282,317.351440 213.409821,317.026001 
	C214.028732,316.916748 214.647629,316.807526 215.526031,316.817322 
z"/>
<path fill="#E1E1E1" opacity="1.000000" stroke="none" 
	d="
M189.732330,275.187195 
	C190.349335,274.826050 190.902557,274.729858 191.455795,274.633698 
	C191.435287,274.926544 191.430099,275.472015 191.391968,275.474304 
	C190.820053,275.509003 190.243790,275.472137 189.732330,275.187195 
z"/>
<path fill="#E5E5E5" opacity="1.000000" stroke="none" 
	d="
M208.698730,320.159607 
	C208.416580,320.498505 208.166016,320.618195 207.915451,320.737885 
	C207.843567,320.496643 207.771667,320.255402 207.699783,320.014160 
	C208.043289,319.989563 208.386795,319.964966 208.698730,320.159607 
z"/>
<path fill="#E5E5E5" opacity="1.000000" stroke="none" 
	d="
M226.135590,327.700867 
	C225.945236,327.392426 225.971222,327.051941 225.997192,326.711426 
	C226.234421,326.783173 226.471649,326.854889 226.708878,326.926605 
	C226.589890,327.173981 226.470917,327.421387 226.135590,327.700867 
z"/>
<path fill="#E5E5E5" opacity="1.000000" stroke="none" 
	d="
M231.840424,323.698730 
	C231.501495,323.416626 231.381775,323.166046 231.262054,322.915466 
	C231.503281,322.843567 231.744507,322.771667 231.985718,322.699768 
	C232.010361,323.043274 232.034988,323.386749 231.840424,323.698730 
z"/>
<path fill="#E5E5E5" opacity="1.000000" stroke="none" 
	d="
M226.885712,323.705017 
	C226.594040,323.787720 226.206924,323.697113 226.123352,323.486176 
	C226.055405,323.314667 226.351288,322.998962 226.485809,322.747192 
	C226.631027,322.991364 226.776260,323.235504 226.885712,323.705017 
z"/>
<path fill="#E5E5E5" opacity="1.000000" stroke="none" 
	d="
M215.121964,314.366913 
	C215.431564,314.375305 215.858063,314.553375 216.106689,314.852905 
	C215.656265,314.895477 215.426270,314.749542 215.121964,314.366913 
z"/>
<path fill="#A5CAC5" opacity="1.000000" stroke="none" 
	d="
M166.434998,263.432434 
	C166.543365,263.350433 166.587387,263.658051 166.587387,263.658051 
	C166.587387,263.658051 166.326645,263.514465 166.434998,263.432434 
z"/>
<path fill="#A5CAC5" opacity="1.000000" stroke="none" 
	d="
M165.411957,265.366302 
	C165.523209,265.265564 165.582184,265.613190 165.582184,265.613190 
	C165.582184,265.613190 165.300720,265.467041 165.411957,265.366302 
z"/>
<path fill="#FB603B" opacity="1.000000" stroke="none" 
	d="
M281.395813,309.247528 
	C280.063812,304.483337 278.618744,299.715790 278.258453,294.867615 
	C277.837952,289.208771 275.449036,286.946259 269.473328,287.513306 
	C269.031616,281.838135 269.031616,276.614746 269.031616,270.916870 
	C260.389893,270.916870 252.195007,270.916870 244.000122,270.916870 
	C246.383865,263.658875 248.568985,256.325592 251.273651,249.189240 
	C252.074051,247.077393 254.339127,245.520676 255.966217,243.354797 
	C255.999420,243.000000 255.995239,243.003891 256.279236,243.073486 
	C257.329834,243.627167 258.096466,244.111237 259.005035,244.684921 
	C259.005035,243.901367 259.005035,243.326752 259.005035,242.752136 
	C259.990967,241.396027 260.976868,240.039902 262.249634,238.107361 
	C262.678528,236.358719 262.820557,235.186508 262.962585,234.014282 
	C262.974609,233.837723 262.986633,233.661148 263.380280,233.227936 
	C269.223633,234.952698 274.688934,236.924301 280.146301,238.917557 
	C290.949921,242.863434 295.995453,250.188889 295.861084,261.624481 
	C295.812317,265.774017 295.858551,269.924652 295.861450,274.074799 
	C295.670441,281.081879 295.479431,288.088928 295.391388,295.551178 
	C295.380219,296.152588 295.266052,296.298828 295.141998,296.723236 
	C293.072540,303.695648 287.322845,306.348389 281.395813,309.247528 
z"/>
<path fill="#FFFEFE" opacity="1.000000" stroke="none" 
	d="
M296.160126,273.870117 
	C295.858551,269.924652 295.812317,265.774017 295.861084,261.624481 
	C295.995453,250.188889 290.949921,242.863434 280.146301,238.917557 
	C274.688934,236.924301 269.223633,234.952698 263.381653,232.962494 
	C259.750488,227.929108 263.065338,222.911484 263.308289,217.263794 
	C265.828278,212.876526 267.756042,209.140533 262.723114,205.976608 
	C262.718964,204.905579 262.714813,203.834564 262.785278,202.367279 
	C270.564575,202.358597 276.204041,207.242630 282.394806,210.931656 
	C283.634552,211.670395 284.920197,212.332169 286.542511,213.041504 
	C287.080078,213.600204 287.259796,214.146835 287.675751,214.865204 
	C290.504547,219.056641 293.131561,223.054657 295.681976,227.100937 
	C299.926025,233.834290 301.326691,241.397812 302.011047,249.595978 
	C301.998199,250.461578 301.975189,250.893173 301.986694,251.647400 
	C300.167053,259.201813 298.312927,266.433624 296.160126,273.870117 
z"/>
<path fill="#FE967A" opacity="1.000000" stroke="none" 
	d="
M314.262817,287.733032 
	C314.108459,283.782990 314.108459,280.171997 314.108459,276.378632 
	C311.994843,276.090271 310.416016,275.874878 308.837158,275.659454 
	C308.903442,275.332184 308.969757,275.004913 309.036041,274.677612 
	C314.000427,275.728607 318.964813,276.779602 323.929169,277.830597 
	C323.873535,278.026093 323.817871,278.221588 323.762207,278.417084 
	C321.044495,278.246368 318.326782,278.075653 315.373810,277.890167 
	C315.021027,281.645142 314.719116,284.858612 314.262817,287.733032 
z"/>
<path fill="#E6E5E5" opacity="1.000000" stroke="none" 
	d="
M319.869629,267.215881 
	C320.429840,268.501495 320.878815,269.477783 321.327820,270.454102 
	C321.020905,270.678192 320.713989,270.902283 320.407074,271.126373 
	C319.657532,269.913361 318.908020,268.700348 318.158478,267.487366 
	C318.691803,267.293762 319.225128,267.100159 319.869629,267.215881 
z"/>
<path fill="#E6E5E5" opacity="1.000000" stroke="none" 
	d="
M328.661224,269.039429 
	C328.008667,268.453400 327.554901,267.639862 327.101105,266.826324 
	C327.517700,266.681976 327.934265,266.537598 328.350830,266.393250 
	C328.520538,267.199493 328.690247,268.005707 328.661224,269.039429 
z"/>
<path fill="#E6E5E5" opacity="1.000000" stroke="none" 
	d="
M326.392212,263.954346 
	C326.789917,263.711639 327.185547,263.713257 327.579010,263.743591 
	C327.590057,263.744446 327.577545,264.051117 327.575989,264.215179 
	C327.180634,264.211029 326.785248,264.206879 326.392212,263.954346 
z"/>
<path fill="#E6E5E5" opacity="1.000000" stroke="none" 
	d="
M327.969177,285.979156 
	C328.431213,285.205261 328.893250,284.431335 329.355286,283.657440 
	C329.571686,283.803497 329.788086,283.949585 330.004456,284.095642 
	C329.547729,284.710175 329.090973,285.324677 328.319000,285.972015 
	C328.003784,286.004852 327.969177,285.979156 327.969177,285.979156 
z"/>
<path fill="#E6E5E5" opacity="1.000000" stroke="none" 
	d="
M330.894287,281.640076 
	C331.166504,281.363464 331.571198,281.249481 331.983734,281.192596 
	C332.054871,281.182831 332.159424,281.415558 332.248535,281.536285 
	C331.842163,281.631531 331.435760,281.726776 330.894287,281.640076 
z"/>
<path fill="#E6E5E5" opacity="1.000000" stroke="none" 
	d="
M328.019226,286.019989 
	C327.896027,286.458832 327.757324,286.882568 327.618622,287.306274 
	C327.602997,286.951569 327.587372,286.596893 327.770447,286.110657 
	C327.969177,285.979156 328.003784,286.004852 328.019226,286.019989 
z"/>
<path fill="#E6E5E5" opacity="1.000000" stroke="none" 
	d="
M321.355591,263.259033 
	C321.370361,263.008148 321.504669,262.871338 321.639008,262.734528 
	C321.584381,262.947388 321.529755,263.160278 321.355591,263.259033 
z"/>
<path fill="#E6E5E5" opacity="1.000000" stroke="none" 
	d="
M333.467102,279.449127 
	C333.523132,279.415588 333.411102,279.482666 333.467102,279.449127 
z"/>
<path fill="#E6E5E5" opacity="1.000000" stroke="none" 
	d="
M332.532654,276.550537 
	C332.476929,276.583862 332.588379,276.517242 332.532654,276.550537 
z"/>
<path fill="#BFD5D2" opacity="1.000000" stroke="none" 
	d="
M316.028656,219.939011 
	C317.657257,220.955750 319.285828,221.972473 320.996857,223.644806 
	C322.064056,224.523315 323.048828,224.746262 324.033600,224.969193 
	C324.033600,224.969193 323.999969,225.000000 324.005859,225.331573 
	C323.999756,226.132568 323.987762,226.602005 323.820801,227.370544 
	C322.423157,227.648056 321.180450,227.612473 319.937653,227.607788 
	C317.369385,227.598099 314.801056,227.604858 312.232727,227.604858 
	C311.963318,228.152893 311.693909,228.700943 311.424469,229.248978 
	C319.171326,229.496948 319.065979,233.767242 316.968201,238.821594 
	C313.669495,238.903595 310.848328,238.977554 308.027161,239.051514 
	C308.027161,239.051514 307.955902,239.038452 308.000610,238.549591 
	C308.017792,235.552567 307.990234,233.044403 307.962708,230.536224 
	C308.235565,230.355865 308.673492,230.231628 308.756714,229.986816 
	C310.172119,225.824600 312.848907,223.683746 318.835175,225.561783 
	C317.481079,222.958191 316.879181,221.800873 316.135071,220.315536 
	C315.992859,219.987518 316.028656,219.939011 316.028656,219.939011 
z"/>
<path fill="#B9B3B7" opacity="1.000000" stroke="none" 
	d="
M308.162598,239.391815 
	C310.848328,238.977554 313.669495,238.903595 316.706329,239.176544 
	C315.326660,239.992935 313.731323,240.462418 312.136017,240.931915 
	C312.175476,241.506866 312.214935,242.081818 312.254395,242.656769 
	C318.660004,243.351578 325.105896,243.013382 331.669312,242.820801 
	C331.669312,237.303284 331.669312,232.410065 331.669312,227.071442 
	C328.878723,227.071442 326.427246,227.071442 323.975769,227.071442 
	C323.987762,226.602005 323.999756,226.132568 324.015198,225.310669 
	C324.669067,224.845520 325.344971,224.557053 325.966125,224.646866 
	C333.696960,225.764648 334.065765,223.375656 334.016052,232.611435 
	C333.949341,244.998627 334.001801,244.998917 321.670258,244.998901 
	C321.171417,244.998901 320.672424,245.006592 320.173737,244.997711 
	C315.474548,244.914017 310.083832,246.386856 308.162598,239.391815 
z"/>
<path fill="#E1E1E1" opacity="1.000000" stroke="none" 
	d="
M330.508606,210.004578 
	C329.402618,208.969833 328.296631,207.935104 327.190613,206.900391 
	C328.058350,206.313339 328.926056,205.726288 329.793762,205.139221 
	C330.241730,206.382843 330.689697,207.626465 330.971680,209.338562 
	C330.805695,209.807007 330.508606,210.004578 330.508606,210.004578 
z"/>
<path fill="#E1E1E1" opacity="1.000000" stroke="none" 
	d="
M335.340576,213.981537 
	C335.957184,214.046234 336.573761,214.110947 337.120850,214.168350 
	C335.487335,216.201065 333.902283,218.173492 332.317230,220.145920 
	C332.000427,219.947250 331.683624,219.748566 331.366821,219.549881 
	C331.535675,218.730118 331.704529,217.910339 332.213776,216.630005 
	C332.691681,215.790314 332.829193,215.411194 332.966705,215.032089 
	C332.966705,215.032089 332.976440,214.987183 333.334656,215.056335 
	C334.242126,214.744171 334.791351,214.362854 335.340576,213.981537 
z"/>
<path fill="#E1E1E1" opacity="1.000000" stroke="none" 
	d="
M315.963745,219.995300 
	C315.475433,219.377319 314.533997,218.294601 314.629181,218.194122 
	C316.142303,216.597244 317.788177,215.126160 319.403717,213.626328 
	C319.784180,213.983688 320.164612,214.341064 320.545044,214.698425 
	C319.140594,216.252625 317.736176,217.806808 316.180176,219.650009 
	C316.028656,219.939011 315.992859,219.987518 315.963745,219.995300 
z"/>
<path fill="#E1E1E1" opacity="1.000000" stroke="none" 
	d="
M327.306091,219.615601 
	C326.067719,218.608627 325.113800,217.426651 324.159882,216.244675 
	C324.713501,215.901596 325.267120,215.558517 325.820740,215.215424 
	C326.410675,216.623810 327.000610,218.032196 327.306091,219.615601 
z"/>
<path fill="#B9B3B7" opacity="1.000000" stroke="none" 
	d="
M307.645569,230.839508 
	C307.990234,233.044403 308.017792,235.552567 307.997894,238.513458 
	C307.743134,236.358383 307.535797,233.750580 307.645569,230.839508 
z"/>
<path fill="#E5E5E5" opacity="1.000000" stroke="none" 
	d="
M317.491791,203.664215 
	C318.036560,204.009567 318.363220,204.570450 318.689880,205.131348 
	C318.410553,205.259064 318.131195,205.386780 317.851868,205.514496 
	C317.659149,204.969589 317.466431,204.424683 317.491791,203.664215 
z"/>
<path fill="#E5E5E5" opacity="1.000000" stroke="none" 
	d="
M317.204071,199.798721 
	C317.568390,199.195602 317.995483,198.892319 318.422607,198.589050 
	C318.537720,199.037140 318.652832,199.485214 318.767914,199.933304 
	C318.267578,199.988403 317.767212,200.043488 317.204071,199.798721 
z"/>
<path fill="#B9B3B7" opacity="1.000000" stroke="none" 
	d="
M335.158447,213.729919 
	C334.791351,214.362854 334.242126,214.744171 333.355591,215.046844 
	C332.927826,214.316910 332.837341,213.665588 332.862549,212.521439 
	C332.978271,212.028595 333.290771,211.703217 333.290771,211.703217 
	C333.852631,212.294907 334.414490,212.886612 335.158447,213.729919 
z"/>
<path fill="#E5E5E5" opacity="1.000000" stroke="none" 
	d="
M314.607483,203.532959 
	C315.058533,203.649323 315.335022,203.933365 315.590240,204.235413 
	C315.596741,204.243118 315.368927,204.448822 315.250397,204.562195 
	C314.976990,204.275803 314.703613,203.989410 314.607483,203.532959 
z"/>
<path fill="#B9B3B7" opacity="1.000000" stroke="none" 
	d="
M323.896118,224.642975 
	C323.048828,224.746262 322.064056,224.523315 321.054657,223.976105 
	C321.939575,223.873459 322.849121,224.095123 323.896118,224.642975 
z"/>
<path fill="#E1E1E1" opacity="1.000000" stroke="none" 
	d="
M329.353210,221.267029 
	C329.368347,221.008179 329.507324,220.866714 329.646301,220.725235 
	C329.589874,220.944962 329.533478,221.164703 329.353210,221.267029 
z"/>
<path fill="#B9B3B7" opacity="1.000000" stroke="none" 
	d="
M332.644562,215.127579 
	C332.829193,215.411194 332.691681,215.790314 332.271851,216.327988 
	C332.100494,216.065399 332.211456,215.644241 332.644562,215.127579 
z"/>
<path fill="#B9B3B7" opacity="1.000000" stroke="none" 
	d="
M332.824951,212.194061 
	C332.403503,212.170181 332.135376,211.980850 331.920258,211.407608 
	C331.973267,211.023712 332.272583,210.716141 332.272583,210.716141 
	C332.566742,210.856750 332.813812,211.055847 333.152283,211.508301 
	C333.290771,211.703217 332.978271,212.028595 332.824951,212.194061 
z"/>
<path fill="#B9B3B7" opacity="1.000000" stroke="none" 
	d="
M331.822906,211.176819 
	C331.384369,211.061371 331.096222,210.792816 330.658325,210.264420 
	C330.508606,210.004578 330.805695,209.807007 330.905396,209.657837 
	C331.312408,209.751999 331.619659,209.995331 332.099762,210.477417 
	C332.272583,210.716141 331.973267,211.023712 331.822906,211.176819 
z"/>
<path fill="#A5CAC5" opacity="1.000000" stroke="none" 
	d="
M299.042175,178.140060 
	C296.397766,178.140060 293.753357,178.140060 290.900055,178.140060 
	C290.900055,179.602295 290.900055,181.016754 290.900055,182.717087 
	C293.692383,182.856888 296.588531,183.001877 299.776428,183.161499 
	C299.776428,186.032425 299.776428,188.593811 299.776428,191.155197 
	C299.587402,191.171692 299.398346,191.188171 299.209320,191.204666 
	C299.013824,189.027832 298.818359,186.851013 298.597717,184.393784 
	C295.494263,184.393784 292.600037,184.393784 289.403015,184.393784 
	C289.191345,187.188370 288.995850,189.769409 288.736511,193.193253 
	C281.341339,192.771194 274.136841,192.458572 266.963409,191.804916 
	C266.209229,191.736206 265.127930,189.681549 265.072205,188.506790 
	C264.851746,183.859726 264.955719,179.196014 264.984589,174.538757 
	C265.010529,170.351044 267.648407,167.304489 271.384949,167.064438 
	C277.425110,166.676407 280.439880,168.762436 281.065582,173.750381 
	C281.127045,174.240448 281.259003,174.721695 281.360138,175.216354 
	C287.187561,175.921402 292.981873,176.622467 298.916992,177.684937 
	C299.057831,178.046356 299.042175,178.140060 299.042175,178.140060 
M277.050690,178.853134 
	C276.531830,181.801910 277.550415,183.293091 280.751190,182.932922 
	C282.063568,182.785233 283.519531,183.236542 284.707306,182.826996 
	C286.242188,182.297714 287.573853,181.179260 288.993011,180.314499 
	C287.648468,179.524033 286.370270,178.242599 284.944916,178.049896 
	C282.338379,177.697525 279.644867,177.988937 277.298676,177.348907 
	C279.475464,175.814575 281.074860,174.110245 279.301575,171.445007 
	C274.837646,171.445007 270.616486,171.445007 266.393250,171.445007 
	C266.393250,177.771820 266.393250,183.670105 266.393250,189.712814 
	C269.665131,189.712814 272.558014,189.712814 276.100861,189.712814 
	C275.827057,187.071442 275.331482,184.818420 275.452698,182.599075 
	C275.537933,181.038101 276.462250,179.522949 277.050690,178.853134 
M278.023193,190.240540 
	C281.055511,191.010391 284.087799,191.780228 287.619324,192.676804 
	C287.619324,189.106384 287.619324,186.883408 287.619324,184.507477 
	C284.308441,184.507477 281.294647,184.507477 277.957458,184.507477 
	C277.957458,186.399612 277.957458,187.875565 278.023193,190.240540 
z"/>
<path fill="#E5E5E5" opacity="1.000000" stroke="none" 
	d="
M299.105347,178.046463 
	C299.619690,178.349365 300.086578,178.652176 300.553436,178.954987 
	C300.372162,179.155075 300.190887,179.355164 300.009613,179.555252 
	C299.705627,179.262360 299.401611,178.969467 299.069885,178.408310 
	C299.042175,178.140060 299.057831,178.046356 299.105347,178.046463 
z"/>
<path fill="#EDB6A9" opacity="1.000000" stroke="none" 
	d="
M297.068695,311.978546 
	C297.140717,312.128510 297.183319,312.383911 297.288971,312.413391 
	C306.557220,315.000244 303.075500,323.178070 305.642212,329.932617 
	C299.570374,329.932617 294.466766,330.123749 289.400696,329.772705 
	C288.377869,329.701843 287.497253,327.578064 287.054230,326.028168 
	C292.154877,329.840607 297.480225,327.330750 303.270477,327.906311 
	C302.685547,323.657684 302.199615,320.128265 301.611969,315.859863 
	C297.445923,315.859863 293.447205,315.859863 289.448486,315.859863 
	C289.462280,315.599091 289.476074,315.338348 289.489838,315.077576 
	C290.995209,314.346771 292.500580,313.615967 294.433472,312.483429 
	C295.596863,312.047333 296.332794,312.012939 297.068695,311.978546 
z"/>
<path fill="#EDB6A9" opacity="1.000000" stroke="none" 
	d="
M269.190826,331.858246 
	C269.190826,331.858246 269.454193,331.784668 269.750488,332.076874 
	C270.374451,332.589203 270.702148,332.809326 271.029846,333.029449 
	C271.082184,333.813171 271.134521,334.596863 271.182587,335.316559 
	C274.394867,334.827850 277.402527,334.370270 280.410187,333.912689 
	C280.650024,334.634430 280.889832,335.356201 281.129639,336.077942 
	C279.718811,336.704712 278.198090,338.032562 276.916901,337.831818 
	C272.387939,337.122192 266.965576,340.277374 262.310242,334.694489 
	C265.048309,334.263916 266.734436,333.998779 268.754059,333.139221 
	C269.121979,332.315979 269.156403,332.087097 269.190826,331.858246 
z"/>
<path fill="#EDB6A9" opacity="1.000000" stroke="none" 
	d="
M279.879578,329.917847 
	C280.266083,328.521790 280.855988,327.144958 280.990356,325.725037 
	C281.181824,323.701996 281.039062,321.647339 281.039062,319.606171 
	C281.616272,319.597931 282.193481,319.589691 282.770691,319.581451 
	C282.770691,323.657257 283.457764,327.934265 282.358551,331.688202 
	C282.021912,332.837982 276.786407,332.553284 273.361145,332.667358 
	C272.928009,332.409271 272.996552,332.038330 272.996552,332.038330 
	C274.563538,331.534607 276.130554,331.030884 278.201843,330.240051 
	C279.097260,329.941254 279.488434,329.929535 279.879578,329.917847 
z"/>
<path fill="#FB9479" opacity="1.000000" stroke="none" 
	d="
M279.956970,329.472687 
	C279.488434,329.929535 279.097260,329.941254 278.413330,329.935425 
	C278.473785,327.551117 278.827087,325.184357 279.291260,322.074707 
	C274.116028,322.074707 269.579498,322.074707 264.476654,322.002502 
	C263.910309,321.930328 263.690948,321.749878 263.690948,321.749878 
	C268.872437,321.376373 274.053894,321.002869 280.034332,320.571777 
	C280.034332,323.891632 280.034332,326.459595 279.956970,329.472687 
z"/>
<path fill="#FE967A" opacity="1.000000" stroke="none" 
	d="
M268.751007,331.877197 
	C269.156403,332.087097 269.121979,332.315979 269.028748,332.887909 
	C266.522064,333.034393 264.074188,332.837830 261.357605,332.619659 
	C261.357605,328.653870 261.357605,324.903076 261.357605,321.152313 
	C261.550659,321.135498 261.743713,321.118713 261.936768,321.101898 
	C261.936768,322.555084 262.117340,324.035370 261.904358,325.456635 
	C261.139862,330.558105 263.353668,332.557465 268.751007,331.877197 
z"/>
<path fill="#E6E5E5" opacity="1.000000" stroke="none" 
	d="
M297.381378,311.928650 
	C296.332794,312.012939 295.596863,312.047333 294.504333,312.164978 
	C294.775085,311.500153 295.402435,310.752045 296.029785,310.003967 
	C296.584564,310.628906 297.139313,311.253845 297.381378,311.928650 
z"/>
<path fill="#FB9479" opacity="1.000000" stroke="none" 
	d="
M264.017944,322.023010 
	C264.125610,324.504089 264.125610,326.892548 264.125610,329.280975 
	C263.816345,329.280121 263.507080,329.279236 263.197815,329.278381 
	C263.197815,326.984009 263.197815,324.689667 263.444397,322.072571 
	C263.690948,321.749878 263.910309,321.930328 264.017944,322.023010 
z"/>
<path fill="#FE967A" opacity="1.000000" stroke="none" 
	d="
M272.591736,331.990082 
	C272.996552,332.038330 272.928009,332.409271 272.899963,332.594666 
	C272.463135,332.837189 272.054321,332.894348 271.337677,332.990479 
	C270.702148,332.809326 270.374451,332.589203 269.881439,332.116119 
	C270.539734,331.889374 271.363342,331.915619 272.591736,331.990082 
z"/>
<path fill="#E6E5E5" opacity="1.000000" stroke="none" 
	d="
M289.135651,320.702026 
	C288.944855,320.392883 288.970856,320.051697 288.996857,319.710480 
	C289.234558,319.782349 289.472290,319.854218 289.709991,319.926086 
	C289.590820,320.174042 289.471619,320.421967 289.135651,320.702026 
z"/>
<path fill="#FB9479" opacity="1.000000" stroke="none" 
	d="
M238.833649,228.344559 
	C240.581604,229.067688 242.405411,230.018829 244.614594,230.984680 
	C244.999985,230.999374 245.020950,231.016129 245.020935,231.016129 
	C244.934677,232.136215 244.848404,233.256287 244.770065,234.273361 
	C239.426117,235.741196 241.568390,231.163620 240.031464,229.213196 
	C239.376663,229.007553 239.109024,228.846802 238.833649,228.344559 
z"/>
<path fill="#FB9479" opacity="1.000000" stroke="none" 
	d="
M262.598053,205.858307 
	C267.756042,209.140533 265.828278,212.876526 263.316223,216.849518 
	C262.708557,213.553177 262.383881,210.044601 262.103333,206.082123 
	C262.147400,205.628220 262.472992,205.740021 262.598053,205.858307 
z"/>
<path fill="#FB9479" opacity="1.000000" stroke="none" 
	d="
M234.731354,201.149597 
	C234.880875,201.535339 234.775192,202.049194 234.477539,202.747223 
	C234.349106,202.380157 234.412628,201.828918 234.731354,201.149597 
z"/>
<path fill="#E6E5E5" opacity="1.000000" stroke="none" 
	d="
M243.882523,271.278503 
	C252.195007,270.916870 260.389893,270.916870 269.031616,270.916870 
	C269.031616,276.614746 269.031616,281.838135 269.032410,287.529602 
	C260.964600,287.342407 252.901398,286.605408 244.824814,286.070404 
	C241.394348,285.843201 240.016083,284.445251 241.009888,281.048676 
	C241.927551,277.912292 242.846512,274.776276 243.882523,271.278503 
M258.184692,276.998108 
	C260.165283,276.624542 262.145905,276.250977 264.126495,275.877441 
	C264.085571,275.702209 264.044647,275.526978 264.003723,275.351746 
	C258.329865,275.351746 252.656006,275.351746 246.982147,275.351746 
	C246.953064,275.651764 246.923965,275.951782 246.894882,276.251801 
	C250.360748,276.500763 253.826614,276.749725 258.184692,276.998108 
z"/>
<path fill="#FB603B" opacity="1.000000" stroke="none" 
	d="
M252.919144,232.071106 
	C257.199585,233.063965 254.945801,236.903595 256.039551,240.006210 
	C256.012238,241.491837 256.003723,242.247864 255.995239,243.003891 
	C255.995239,243.003891 255.999420,243.000000 255.999710,242.999725 
	C254.768723,241.841049 253.507034,240.712952 252.314926,239.515549 
	C251.173386,238.368942 250.269745,236.909012 248.967422,236.015411 
	C246.514328,234.332214 246.195801,233.103943 249.991364,231.922668 
	C251.458984,231.951813 252.189056,232.011459 252.919144,232.071106 
M250.434586,233.681107 
	C250.434586,233.681107 250.541473,233.468506 250.541473,233.468506 
	C250.541473,233.468506 250.296555,233.512054 250.434586,233.681107 
z"/>
<path fill="#FB9479" opacity="1.000000" stroke="none" 
	d="
M252.303864,218.722412 
	C250.600403,218.783859 249.226852,218.704071 247.853317,218.624283 
	C247.809296,218.267319 247.765289,217.910355 247.721268,217.553391 
	C249.283463,217.163361 250.845657,216.773346 252.407852,216.383331 
	C252.483170,217.115936 252.558487,217.848557 252.303864,218.722412 
z"/>
<path fill="#FB9479" opacity="1.000000" stroke="none" 
	d="
M256.279236,243.073486 
	C256.003723,242.247864 256.012238,241.491837 256.088867,240.363586 
	C257.077332,240.707138 257.997681,241.422897 258.961548,242.445404 
	C259.005035,243.326752 259.005035,243.901367 259.005035,244.684921 
	C258.096466,244.111237 257.329834,243.627167 256.279236,243.073486 
z"/>
<path fill="#FB9479" opacity="1.000000" stroke="none" 
	d="
M252.905670,231.734802 
	C252.189056,232.011459 251.458984,231.951813 250.365723,231.838470 
	C250.965759,231.655991 251.928986,231.527237 252.905670,231.734802 
z"/>
<path fill="#FB9479" opacity="1.000000" stroke="none" 
	d="
M241.189377,212.803802 
	C240.887146,212.248398 240.886505,211.755173 240.885849,211.261932 
	C241.433090,211.404617 241.980316,211.547318 242.527557,211.690002 
	C242.182022,212.081985 241.836487,212.473984 241.189377,212.803802 
z"/>
<path fill="#FB9479" opacity="1.000000" stroke="none" 
	d="
M262.697266,234.248840 
	C262.820557,235.186508 262.678528,236.358719 262.268951,237.767700 
	C262.144928,236.830780 262.288422,235.657089 262.697266,234.248840 
z"/>
<path fill="#FB9479" opacity="1.000000" stroke="none" 
	d="
M258.296967,228.135376 
	C258.606323,227.944336 258.947662,227.970306 259.289001,227.996292 
	C259.217072,228.234253 259.145142,228.472214 259.073242,228.710175 
	C258.825134,228.590927 258.577057,228.471664 258.296967,228.135376 
z"/>
<path fill="#FB9479" opacity="1.000000" stroke="none" 
	d="
M256.952667,209.065063 
	C256.527771,208.910492 256.102844,208.755936 255.677933,208.601379 
	C256.047363,208.585724 256.416809,208.570084 256.896484,208.778412 
	C257.006744,209.002380 256.952667,209.065063 256.952667,209.065063 
z"/>
<path fill="#FB9479" opacity="1.000000" stroke="none" 
	d="
M250.278076,205.398499 
	C250.150925,205.559143 249.930908,205.582397 249.710876,205.605652 
	C249.869003,205.490799 250.027115,205.375961 250.278076,205.398499 
z"/>
<path fill="#FB9479" opacity="1.000000" stroke="none" 
	d="
M254.739990,204.354813 
	C254.991669,204.369598 255.128952,204.504379 255.266235,204.639160 
	C255.052689,204.584366 254.839142,204.529587 254.739990,204.354813 
z"/>
<path fill="#FB9479" opacity="1.000000" stroke="none" 
	d="
M244.991577,230.988861 
	C245.086868,230.950409 245.190567,230.922485 245.157608,230.955338 
	C245.020950,231.016129 244.999985,230.999374 244.991577,230.988861 
z"/>
<path fill="#FB9479" opacity="1.000000" stroke="none" 
	d="
M257.038269,208.975555 
	C257.176636,209.116882 257.283508,209.285049 257.390381,209.453201 
	C257.293396,209.411789 257.196381,209.370392 257.026031,209.197021 
	C256.952667,209.065063 257.006744,209.002380 257.038269,208.975555 
z"/>
<path fill="#E1E1E1" opacity="1.000000" stroke="none" 
	d="
M323.820831,227.370544 
	C326.427246,227.071442 328.878723,227.071442 331.669312,227.071442 
	C331.669312,232.410065 331.669312,237.303284 331.669312,242.820801 
	C325.105896,243.013382 318.660004,243.351578 312.254395,242.656769 
	C312.214935,242.081818 312.175476,241.506866 312.136017,240.931915 
	C313.731323,240.462418 315.326660,239.992935 317.183838,239.168488 
	C319.065979,233.767242 319.171326,229.496948 311.424469,229.248978 
	C311.693909,228.700943 311.963318,228.152893 312.232727,227.604858 
	C314.801056,227.604858 317.369385,227.598099 319.937653,227.607788 
	C321.180450,227.612473 322.423157,227.648056 323.820831,227.370544 
z"/>
<path fill="#E5E6E6" opacity="1.000000" stroke="none" 
	d="
M277.011871,177.987335 
	C276.462250,179.522949 275.537933,181.038101 275.452698,182.599075 
	C275.331482,184.818420 275.827057,187.071442 276.100861,189.712814 
	C272.558014,189.712814 269.665131,189.712814 266.393250,189.712814 
	C266.393250,183.670105 266.393250,177.771820 266.393250,171.445007 
	C270.616486,171.445007 274.837646,171.445007 279.301575,171.445007 
	C281.074860,174.110245 279.475464,175.814575 277.149353,177.674423 
	C277.000000,177.999939 277.011871,177.987335 277.011871,177.987335 
z"/>
<path fill="#E5E6E6" opacity="1.000000" stroke="none" 
	d="
M277.990326,189.796021 
	C277.957458,187.875565 277.957458,186.399612 277.957458,184.507477 
	C281.294647,184.507477 284.308441,184.507477 287.619324,184.507477 
	C287.619324,186.883408 287.619324,189.106384 287.619324,192.676804 
	C284.087799,191.780228 281.055511,191.010391 277.990326,189.796021 
z"/>
<path fill="#E5E6E6" opacity="1.000000" stroke="none" 
	d="
M276.993805,178.005905 
	C279.644867,177.988937 282.338379,177.697525 284.944916,178.049896 
	C286.370270,178.242599 287.648468,179.524033 288.993011,180.314514 
	C287.573853,181.179260 286.242188,182.297714 284.707306,182.826996 
	C283.519531,183.236542 282.063568,182.785233 280.751190,182.932922 
	C277.550415,183.293091 276.531830,181.801910 277.031281,178.420227 
	C277.011871,177.987335 277.000000,177.999939 276.993805,178.005905 
z"/>
<path fill="#B9B3B7" opacity="1.000000" stroke="none" 
	d="
M257.738586,276.998413 
	C253.826614,276.749725 250.360748,276.500763 246.894882,276.251801 
	C246.923965,275.951782 246.953064,275.651764 246.982147,275.351746 
	C252.656006,275.351746 258.329865,275.351746 264.003723,275.351746 
	C264.044647,275.526978 264.085571,275.702209 264.126495,275.877441 
	C262.145905,276.250977 260.165283,276.624542 257.738586,276.998413 
z"/>
<path fill="#FE967A" opacity="1.000000" stroke="none" 
	d="
M250.365570,233.596588 
	C250.296555,233.512054 250.541473,233.468506 250.541473,233.468506 
	C250.541473,233.468506 250.434586,233.681107 250.365570,233.596588 
z"/>
</svg>